<?xml version="1.0" encoding="utf-8"?>
<!-- Generator: Adobe Illustrator 19.0.0, SVG Export Plug-In . SVG Version: 6.00 Build 0)  -->
<svg version="1.1" id="Layer_1" xmlns="http://www.w3.org/2000/svg" xmlns:xlink="http://www.w3.org/1999/xlink" x="0px" y="0px"
	 viewBox="325 23 1610 1156.9" style="enable-background:new 325 23 1610 1156.9;" xml:space="preserve">
<style type="text/css">
	.st0{opacity:0.1;fill:#F1F3FB;enable-background:new    ;}
</style>
<g>
	<g>
		<path class="st0" d="M-329,135C62.1,365.7,479,605.2,1055.9,540.5c577-64.7,966-228,1410.5-112s23.5,762,23.5,762L874.8,1284
			L-329,1064L-329,135L-329,135z"/>
		<path class="st0" d="M-506.3,536.4c213.7-87.7,448.8-219.8,786.5-121c337.7,99,756.1,354.6,1267.1,293.8
			c511.2-60.8,756.8-371.6,1013.2-327.7s71,761.7,71,761.7L785.4,1322.8l-1216.8-222.3L-506.3,536.4z"/>
		<path class="st0" d="M-437.9,358.5c427.4,139.3,913,268.3,1579.7,111.6c666.6-156.7,613.1,189.8,1149.5,209.1
			s502.2,489.5,502.2,489.5l-989.3,239.3l-2207.9-123.7L-437.9,358.5z"/>
	</g>
</g>
</svg>
