<?xml version="1.0" encoding="UTF-8" standalone="no"?>
<!-- Created with Inkscape (http://www.inkscape.org/) -->

<svg
   xmlns:dc="http://purl.org/dc/elements/1.1/"
   xmlns:cc="http://creativecommons.org/ns#"
   xmlns:rdf="http://www.w3.org/1999/02/22-rdf-syntax-ns#"
   xmlns:svg="http://www.w3.org/2000/svg"
   xmlns="http://www.w3.org/2000/svg"
   xmlns:sodipodi="http://sodipodi.sourceforge.net/DTD/sodipodi-0.dtd"
   xmlns:inkscape="http://www.inkscape.org/namespaces/inkscape"
   id="svg2"
   version="1.1"
   inkscape:version="0.48.1 "
   width="1600"
   height="1227"
   sodipodi:docname="C-und-A-Logo-2011.svg"
   inkscape:export-filename="C-und-A-Logo-2011.png"
   inkscape:export-xdpi="112.54"
   inkscape:export-ydpi="112.54">
  <metadata
     id="metadata8">
    <rdf:RDF>
      <cc:Work
         rdf:about="">
        <dc:format>image/svg+xml</dc:format>
        <dc:type
           rdf:resource="http://purl.org/dc/dcmitype/StillImage" />
        <dc:title></dc:title>
      </cc:Work>
    </rdf:RDF>
  </metadata>
  <defs
     id="defs6" />
  <sodipodi:namedview
     pagecolor="#ffffff"
     bordercolor="#666666"
     borderopacity="1"
     objecttolerance="10"
     gridtolerance="10"
     guidetolerance="10"
     inkscape:pageopacity="0"
     inkscape:pageshadow="2"
     inkscape:window-width="1280"
     inkscape:window-height="962"
     id="namedview4"
     showgrid="false"
     inkscape:zoom="0.30431527"
     inkscape:cx="1099.0441"
     inkscape:cy="528.9437"
     inkscape:window-x="-8"
     inkscape:window-y="-8"
     inkscape:window-maximized="1"
     inkscape:current-layer="svg2" />
  <g
     id="g3798">
    <path
       inkscape:connector-curvature="0"
       id="path3028"
       d="m 787,1226.3425 c -24.4709,-3.3578 -41.0277,-9.5964 -69.5,-26.1873 -36.9234,-21.5154 -50.2206,-27.9157 -69.689,-33.5433 -13.1924,-3.8135 -28.4459,-5.7351 -45.311,-5.7081 -17.0873,0.027 -28.9918,1.4274 -59.5,6.9983 -29.667,5.4172 -39.5116,6.4136 -57.8483,5.8551 -22.0002,-0.67 -38.2161,-4.7258 -57.3084,-14.3334 -21.29,-10.7134 -37.06007,-24.9685 -62.97393,-56.9238 -21.23962,-26.1914 -42.16546,-45.8376 -61.08567,-57.3504 -19.64666,-11.9548 -34.11695,-17.2875 -76.2837,-28.1128 -34.90537,-8.9611 -52.21109,-15.6543 -67.73812,-26.1985 -8.96744,-6.08968 -24.73792,-21.78697 -31.7069,-31.55976 C 110.87151,935.18169 104.29612,914.12261 98.99641,866.2124 94.86316,828.84721 91.8783,812.69895 85.57807,793.61831 76.94981,767.48713 65.46645,747.08046 39.93067,712.5 23.55826,690.32853 13.0883,672.38031 7.55517,657 -1.69639,631.28369 -2.09427,599.6661 6.50338,573.41979 12.56064,554.92863 20.83585,540.86295 47.35131,503.98906 71.41387,470.52631 82.408,448.36337 89.89743,418.22086 93.64073,403.15527 95.32887,392.68268 98.47638,365 c 2.92549,-25.72991 4.85743,-38.21024 7.62352,-49.24803 8.45487,-33.7382 27.98552,-62.27469 54.9001,-80.21527 15.86222,-10.57336 33.09546,-17.17674 67.65712,-25.92464 26.63693,-6.74208 35.55455,-9.40112 47.56978,-14.18428 C 309.42622,182.21142 333.426,163.11612 363.48667,126 377.6489,108.5138 380.31746,105.53016 392.79054,93.236279 413.5532,72.771913 439.3275,59.344789 466.9262,54.615327 478.6451,52.607116 500.7467,52.533125 515,54.454387 c 5.775,0.778439 20.5799,3.247898 32.8999,5.487687 28.6871,5.215382 37.2584,6.15974 55.4425,6.10846 17.0962,-0.04821 31.5847,-1.946602 45.4354,-5.953246 C 667.45,54.6959 679.7461,48.837175 712.2199,29.869041 733.3984,17.498558 741.7313,13.280302 754,8.7191114 c 16.6614,-6.1942941 27.2122,-8.03823664 46,-8.03934454 30.7653,-0.001814 48.1094,5.93837124 91.5,31.33788214 31.6607,18.533167 49.6304,26.33883 71.8522,31.21111 8.969,1.966495 12.9939,2.223207 34.6478,2.209869 26.7468,-0.01648 20.3092,0.771448 74,-9.057257 18.9659,-3.471917 45.6643,-4.327103 60.0408,-1.923184 28.5901,4.780602 53.9248,17.914508 75.7891,39.290222 6.0486,5.913375 18.8444,20.201591 28.4351,31.751591 27.482,33.0962 44.9124,48.65072 68.735,61.33769 17.0186,9.06345 29.9517,13.49431 67.5,23.12549 34.9647,8.96847 50.6223,14.98982 66.5,25.57352 29.3861,19.58802 49.5692,51.31869 56.9056,89.4633 2.2933,11.92381 3.1081,17.83785 6.615,48.00941 6.7841,58.3674 18.284,87.79307 52.6111,134.61923 14.592,19.90515 24.8211,35.50385 30.226,46.09274 13.4918,26.43204 17.7207,57.4752 11.7534,86.27862 -4.6726,22.55451 -14.7624,42.30646 -37.0346,72.5 -40.7555,55.25053 -51.6284,82.99599 -58.5864,149.5 -4.3856,41.91776 -9.1443,61.37875 -19.9974,81.78028 -6.7483,12.68559 -14.6185,23.07055 -25.4152,33.53632 -20.4584,19.83122 -37.3199,27.8447 -83.5775,39.7202 -28.3884,7.288 -36.8984,9.8266 -48.7269,14.5354 -34.2965,13.6531 -56.4177,31.4723 -89.2731,71.9115 -29.757,36.6256 -48.6946,51.8954 -77.5598,62.5384 -17.1673,6.3297 -24.4512,7.4779 -47.4402,7.4779 -12.9689,0 -23.8683,-0.5059 -28.5,-1.3227 -4.125,-0.7275 -15.825,-2.8515 -26,-4.7201 -37.3639,-6.8616 -61.0929,-8.2764 -83.311,-4.9672 -26.7553,3.9849 -43.5887,11.0938 -89.189,37.6652 -24.0165,13.9945 -39.4795,20.5511 -56.4647,23.942 -9.385,1.8735 -32.1864,3.1851 -39.0353,2.2453 z"
       style="fill:#9d0822;fill-opacity:1" />
    <path
       id="path3026"
       d="m 862.5,1073.9804 c 51.2176,-3.1223 88.3689,-7.8594 137.7173,-17.5599 79.1463,-15.558 161.2421,-45.4179 221.534,-80.57631 4.8118,-2.80592 11.2237,-6.53458 14.2487,-8.28591 9.0497,-5.23935 32.136,-20.80103 44.718,-30.14284 44.5184,-33.05373 85.1554,-75.74693 112.9555,-118.67092 C 1447.6414,735.417 1466.7181,637.68606 1447.8882,541 1436.7144,483.62531 1410.8397,427.64121 1372.9977,378.96205 1350.6445,350.20739 1319.8656,319.67478 1289.1936,295.8286 1189.4088,218.25003 1053.4994,169.70643 896.5,155.56776 836.04416,150.12338 765.08766,150.13186 703,155.59089 553.06202,168.77411 417.24079,216.23917 319.1015,289.7508 229.47144,356.88855 172.99651,441.28616 152.65017,538.5 c -5.25929,25.12863 -7.02443,43.62081 -7.06357,74 -0.0378,29.3746 0.74333,39.43742 5.00709,64.5 13.75786,80.86951 53.71943,154.32119 118.05937,217 34.37047,33.4831 67.58173,58.01668 115.34694,85.20826 29.21986,16.63416 71.87039,35.54084 108.84457,48.24994 84.40659,29.0132 177.52077,45.1792 276.15543,47.9447 18.43108,0.5167 76.075,-0.3602 93.5,-1.4225 z"
       style="fill:#ffffff" />
    <path
       id="path3024"
       d="M 500,852.97518 C 434.06509,846.74462 380.55258,815.07561 344.58549,761 323.06467,728.64399 308.58218,688.54711 302.32657,644 c -2.48641,-17.70608 -2.45366,-64.12707 0.0582,-82.5 6.34851,-46.4361 18.92467,-82.23287 40.43076,-115.08211 25.78559,-39.38591 61.72716,-67.34652 105.18668,-81.82958 26.50308,-8.83226 51.47441,-12.23821 82.49779,-11.25224 29.82393,0.94785 53.16183,5.98209 72.5,15.63902 12.40992,6.19717 19.77679,7.18294 25.5263,3.41572 1.22865,-0.80504 3.61702,-4.05871 5.3075,-7.23037 5.12701,-9.61925 4.35947,-9.33853 24.54224,-8.97606 16.74297,0.3007 17.68108,0.42327 19.84875,2.5934 l 2.27521,2.27778 0,66.0588 0,66.05881 -2.80576,2.41341 C 674.96269,497.93616 674.43205,498 657.6328,498 c -20.2641,0 -20.73365,-0.20161 -22.62938,-9.71641 -8.38857,-42.10282 -20.39987,-64.63266 -41.62915,-78.08466 -12.20597,-7.73435 -30.95409,-12.19051 -51.31038,-12.19574 -27.85264,-0.007 -45.98617,9.69638 -64.31436,34.41561 -6.69056,9.02356 -17.06388,29.5496 -21.7721,43.0812 -6.88992,19.80191 -13.28831,50.32774 -16.03483,76.5 -2.36596,22.54583 -1.85824,71.83411 1.08161,105 6.37948,71.97015 25.68039,119.32373 56.85514,139.49058 15.79637,10.21861 27.79368,13.03365 52.07677,12.21924 13.47493,-0.45193 18.25595,-1.02837 25.77315,-3.10748 9.51237,-2.63092 18.78099,-6.81057 25.77073,-11.6212 4.90172,-3.37357 14.57874,-13.15972 18.01655,-18.21971 7.9592,-11.71489 14.77778,-30.26361 18.47627,-50.26143 1.95655,-10.57905 2.57247,-12.3333 5.20152,-14.81476 l 2.98217,-2.81476 17.00058,0.31476 17.00058,0.31476 2.43205,2.83004 2.43204,2.83004 -0.27088,65.9774 -0.27088,65.97739 -2.5,1.92033 c -2.2409,1.72131 -4.29439,1.92263 -19.81377,1.94256 L 644.87245,850 l -2.49163,-2.75 c -1.37039,-1.5125 -3.78165,-4.325 -5.35835,-6.25 -2.71339,-3.3128 -3.17843,-3.49278 -8.69459,-3.36509 -3.36448,0.0779 -13.01365,2.06138 -22.82788,4.69252 -19.55099,5.24151 -28.23217,7.01744 -45,9.20579 -14.50409,1.89292 -47.42447,2.67754 -60.5,1.44196 z"
       style="fill:#002e5c;fill-opacity:1" />
    <path
       id="path3022"
       d="M 821.36408,848.84084 C 817.66644,847.03235 817,843.69837 817,827.00871 c 0,-21.22007 -0.38194,-20.73163 17.17084,-21.95905 9.28436,-0.64923 13.96156,-1.45677 17.49996,-3.02146 9.2724,-4.10018 11.4764,-7.41444 22.2968,-33.5282 3.4184,-8.25 13.5623,-32.55 22.5419,-54 33.9977,-81.21155 72.9471,-174.43219 77.5055,-185.5 2.605,-6.325 7.6668,-18.475 11.2485,-27 3.5817,-8.525 12.8171,-30.575 20.5232,-49 7.7061,-18.425 19.4695,-46.55 26.1408,-62.5 7.2935,-17.43733 13.1242,-29.99678 14.6239,-31.5 l 2.4941,-2.5 32.9545,0 32.9545,0 2.4492,2.5 c 1.6866,1.72152 5.6145,11.53038 12.614,31.5 5.5905,15.95 22.6925,64.775 38.0043,108.5 15.3119,43.725 33.3093,95.025 39.9944,114 6.6851,18.975 12.7344,36.3 13.4431,38.5 0.7086,2.2 4.0004,11.65 7.3151,21 3.3147,9.35 9.258,26.225 13.2072,37.5 30.2881,86.47107 29.6736,84.92177 35.6345,89.83523 4.4158,3.63988 9.4541,4.85296 23.2865,5.6067 9.6351,0.52502 12.2881,1.27622 14.3319,4.05807 0.4041,0.55 0.7416,8.71265 0.75,18.13922 0.014,15.39825 -0.1789,17.37901 -1.8962,19.5 l -1.9115,2.36078 -105.1204,0.26358 -105.1203,0.26358 -2.4682,-2.46812 c -2.4345,-2.43455 -2.4681,-2.70427 -2.4681,-19.82246 0,-12.49917 0.3572,-17.84282 1.2768,-19.10042 1.8041,-2.46723 7.6834,-3.58469 19.0053,-3.6123 15.9236,-0.0388 20.4573,-3.25919 19.4363,-13.80587 -0.4924,-5.08645 -11.262,-40.33906 -21.1357,-69.18452 -1.9705,-5.75658 -3.5827,-10.59408 -3.5827,-10.75 0,-0.15591 -35.7225,-0.28347 -79.3834,-0.28347 -74.7401,0 -79.4135,0.10236 -79.899,1.75 -0.2835,0.9625 -6.6367,16.80126 -14.1181,35.19724 -7.4814,18.39598 -14.1233,35.96832 -14.7597,39.04965 -1.3564,6.5669 -0.6479,10.28592 2.5731,13.50696 3.347,3.34692 8.5798,4.47606 21.0871,4.55018 13.7845,0.0817 20.432,1.13246 22.1659,3.50374 0.9897,1.35348 1.3341,6.2643 1.3341,19.02258 0,15.44215 -0.1951,17.43912 -1.9114,19.55887 l -1.9113,2.36078 -71.8387,0.19275 c -48.2938,0.12958 -72.53864,-0.14963 -73.97452,-0.85191 z"
       style="fill:#002e5c;fill-opacity:1" />
    <path
       id="path3020"
       d="m 1101.6307,670.48006 c -0.556,-1.44899 -16.3241,-53.24965 -44.2079,-145.23006 -7.0444,-23.2375 -13.0671,-42.25 -13.3836,-42.25 -0.3166,0 -1.9675,3.4875 -3.6687,7.75 -1.7012,4.2625 -18.6805,46.52913 -37.7318,93.92584 C 983.5874,632.07255 968,671.11005 968,671.42584 968,671.74163 998.1981,672 1035.107,672 c 59.6311,0 67.042,-0.16932 66.5237,-1.51994 z"
       style="fill:#ffffff" />
    <path
       id="path3018"
       d="m 734.5,684.00636 c -37.87147,-3.97813 -64.94794,-23.97809 -72.51437,-53.56254 -2.44491,-9.5595 -2.5904,-22.37995 -0.35611,-31.37993 5.56388,-22.41197 25.83201,-43.43735 52.73379,-54.704 3.37518,-1.41354 6.30708,-2.73068 6.51533,-2.92696 0.20826,-0.19629 -1.01246,-2.52473 -2.71269,-5.17433 -23.97949,-37.36879 -10.59939,-80.37115 29.54079,-94.94125 10.81798,-3.92671 19.88941,-5.42832 32.79326,-5.42832 23.3332,0 40.02834,6.07549 52.33274,19.04428 7.61286,8.02394 11.35736,15.96351 13.23446,28.06159 3.61,23.26695 -10.44187,43.13491 -42.48442,60.06896 l -10.52792,5.56386 16.52815,24.71081 c 9.09048,13.59094 16.90888,24.4755 17.37421,24.18791 1.39986,-0.86516 11.8896,-18.91705 15.23308,-26.21479 1.7165,-3.74641 4.5772,-11.25917 6.3572,-16.69503 1.78,-5.43586 3.9556,-10.72336 4.8347,-11.75 C 854.8833,541.11343 857.0156,541 888.4712,541 l 33.4907,0 0.6383,2.54337 c 0.9689,3.86017 -6.5977,22.21842 -10.3221,25.04404 -1.0938,0.82982 -4.5121,1.36122 -8.8821,1.38079 -8.2978,0.0371 -9.976,1.15937 -15.991,10.6928 -12.7879,20.26824 -23.9851,35.6789 -32.6681,44.96104 l -5.9706,6.38271 2.6468,3.47021 c 1.4558,1.90862 4.7285,4.90245 7.2728,6.65295 7.7672,5.34398 13.6026,7.03404 26.7089,7.73549 15.3337,0.82065 15.3187,0.80063 10.1639,13.55575 -2.1204,5.24667 -4.644,10.83632 -5.608,12.42144 l -1.7526,2.88205 -15.3491,0.70577 c -26.6054,1.22336 -43.84987,-2.47311 -56.49575,-12.11022 l -3.14674,-2.39806 -3.85326,2.63471 C 790.70343,680.30689 761.13922,686.80461 734.5,684.00636 z"
       style="fill:#002e5c;fill-opacity:1" />
    <path
       id="path3016"
       d="m 763.04035,655.99235 c 7.67216,-1.455 14.56703,-4.91365 21.79761,-10.93428 4.31032,-3.58905 6.19556,-5.8219 5.89285,-6.97945 -0.38892,-1.48722 -46.55718,-65.76491 -50.49163,-70.29688 -1.82358,-2.10053 -3.14121,-1.33704 -10.9162,6.32527 -8.74981,8.62301 -16.17526,26.03119 -16.28785,38.18515 -0.0521,5.62003 2.83543,18.52965 5.17976,23.15804 4.78976,9.45642 12.19114,15.72653 22.28511,18.87893 8.89984,2.77947 14.48232,3.19139 22.54035,1.66322 z"
       style="fill:#ffffff" />
    <path
       id="path2993"
       d="m 779.29804,521.6569 c 14.13182,-9.08197 21.96656,-24.94213 20.30367,-41.10153 -1.59997,-15.54806 -12.29973,-24.19062 -25.55846,-20.64445 -6.20112,1.65855 -10.5753,5.27029 -13.80783,11.40109 -2.47837,4.70047 -2.72693,6.12769 -2.64512,15.18799 0.0753,8.34018 0.53917,11.15984 2.79467,16.98774 2.95206,7.62773 11.17096,21.51226 12.73411,21.51226 0.53734,0 3.31788,-1.50439 6.17896,-3.3431 z"
       style="fill:#ffffff" />
  </g>
</svg>
