<?xml version="1.0" encoding="utf-8"?>
<!-- Generator: Adobe Illustrator 19.0.0, SVG Export Plug-In . SVG Version: 6.00 Build 0)  -->
<svg version="1.1" id="Layer_1" xmlns="http://www.w3.org/2000/svg" xmlns:xlink="http://www.w3.org/1999/xlink" x="0px" y="0px"
	 viewBox="-447 252.9 64.1 56.1" style="enable-background:new -447 252.9 64.1 56.1;" xml:space="preserve">
<style type="text/css">
	.st0{fill:#FFFFFF;}
</style>
<title>Ericsson logo</title>
<path class="st0" d="M-424.1,267.8c-2,0.7-4.1-0.3-4.9-2.2c-0.7-2,0.3-4.1,2.2-4.9c0,0,0,0,0,0l20.8-7.6c1.9-0.7,4.1,0.2,4.8,2.2
	c0,0,0,0.1,0,0.1c0.7,1.9-0.2,4-2.1,4.7c0,0-0.1,0-0.1,0L-424.1,267.8z"/>
<path class="st0" d="M-424.1,279.1c-2,0.7-4.1-0.3-4.9-2.2c-0.7-2,0.3-4.1,2.2-4.9c0,0,0,0,0,0l20.8-7.6c1.9-0.7,4.1,0.2,4.8,2.1
	c0,0,0,0.1,0,0.1c0.7,1.9-0.2,4-2.1,4.7c0,0-0.1,0-0.1,0L-424.1,279.1z"/>
<path class="st0" d="M-424.1,290.3c-2,0.7-4.1-0.3-4.9-2.2c-0.7-2,0.3-4.1,2.2-4.9c0,0,0,0,0,0l20.8-7.6c1.9-0.7,4.1,0.2,4.8,2.1
	c0,0,0,0.1,0,0.1c0.7,1.9-0.2,4-2.1,4.7c0,0-0.1,0-0.1,0L-424.1,290.3z"/>
<polygon class="st0" points="-447,299.7 -440.1,299.7 -440.1,301.6 -444.6,301.6 -444.6,303.1 -440.2,303.1 -440.2,305.1 
	-444.6,305.1 -444.6,306.8 -440,306.8 -440,308.8 -447,308.8 "/>
<rect x="-429.2" y="299.7" class="st0" width="2.5" height="9.1"/>
<path class="st0" d="M-417.7,299.9l-0.1,1.9c-2-1.1-5.1-0.7-5.1,2.3c-0.1,3.1,3.1,3.6,5.2,2.5l0.1,2c-3.7,1.1-8,0-8-4.5
	C-425.5,299.8-421.1,298.6-417.7,299.9z"/>
<path class="st0" d="M-410.3,299.8l-0.1,1.9c-1.3-0.7-3.7-0.7-3.7,0.4c0,1.7,4.3,0.5,4.3,3.9c0,3.3-4,3.4-6.6,2.6l0.1-2
	c1.7,0.7,4,1,4-0.4c0-1.5-4.3-0.7-4.3-3.9C-416.6,299.6-413.3,298.9-410.3,299.8z"/>
<path class="st0" d="M-402.9,299.8l-0.1,1.9c-1.3-0.7-3.7-0.7-3.7,0.4c0,1.7,4.3,0.5,4.3,3.9c0,3.3-4,3.4-6.6,2.6l0.1-2
	c1.7,0.7,4,1,4-0.4c0-1.5-4.3-0.7-4.3-3.9C-409.2,299.6-405.8,298.9-402.9,299.8z"/>
<polygon class="st0" points="-391.4,299.7 -388.3,299.7 -385.3,305.5 -385.3,299.7 -382.9,299.7 -382.9,308.8 -385.9,308.8 
	-389.1,302.8 -389.1,308.8 -391.4,308.8 "/>
<path class="st0" d="M-399.1,304.2c0,1.4,0.6,3,1.9,3c1.4,0,2-1.5,2-3c0-1.2-0.6-3-2-3C-398.5,301.2-399.1,302.8-399.1,304.2z
	 M-397.2,299.5c2.6,0,4.6,1.4,4.6,4.7c0,3.2-2,4.7-4.6,4.7c-2.5,0-4.5-1.5-4.5-4.7C-401.7,300.9-399.7,299.5-397.2,299.5
	L-397.2,299.5z"/>
<path class="st0" d="M-438.2,299.7h4.4c1.3,0,3,0.5,3,2.4c0.1,1.1-0.6,2-1.7,2.3c0.4,0.1,0.7,0.4,0.8,0.8c0,0.1,1.3,3.6,1.3,3.7
	h-2.6l-0.9-2.8c-0.1-0.4-0.5-0.6-0.8-0.6c-0.5,0-1.1-0.1-1.1,0v3.4h-2.4V299.7z M-435.8,303.5h1.3c0.6,0.1,1.1-0.4,1.2-1
	c0,0,0-0.1,0-0.1c0-0.6-0.5-1-1.2-1h-1.3V303.5z"/>
</svg>
