<?xml version="1.0" encoding="UTF-8" standalone="no"?>
<!-- Created with Inkscape (http://www.inkscape.org/) -->
<svg
   xmlns:svg="http://www.w3.org/2000/svg"
   xmlns="http://www.w3.org/2000/svg"
   version="1.0"
   width="778.73688"
   height="153.88692"
   id="svg2605">
  <defs
     id="defs2607" />
  <g
     transform="translate(242.91036,-415.19662)"
     id="layer1">
    <path
       d="M -242.91036,569.08353 L 535.82649,569.08353 L 535.82649,415.19662 L -242.91036,415.19662 L -242.91036,569.08353 z"
       id="path47"
       style="fill:#24477f;fill-opacity:1;fill-rule:nonzero;stroke:none" />
    <path
       d="M -142.30716,508.92496 L -142.30716,507.50014 C -138.70319,507.08107 -137.36218,505.57243 -137.61623,500.71126 L -139.04106,469.29435 L -154.1196,508.58971 L -156.04731,508.58971 L -171.4611,469.29435 L -172.80474,498.78617 C -173.05618,504.98835 -171.71516,506.662 -167.02424,507.50014 L -167.02424,508.92496 L -182.43803,508.92496 L -182.43803,507.50014 C -178.08236,506.99726 -176.3249,504.65048 -175.98702,498.3671 L -174.481,469.04553 C -174.22956,463.51647 -177.91473,462.84335 -180.42913,462.34047 L -180.42913,460.91564 L -167.77856,460.91564 L -153.28409,498.11566 L -139.12226,461.16708 L -127.14219,461.16708 L -127.14219,462.67572 C -130.91117,463.01097 -132.75768,464.85487 -132.59005,469.21054 L -131.16523,499.28905 C -130.91117,505.06955 -129.24014,507.08107 -124.96566,507.50014 L -124.96566,508.92496 L -142.30716,508.92496 z"
       id="path59"
       style="fill:#ffffff;fill-opacity:1;fill-rule:nonzero;stroke:none" />
    <path
       d="M -108.88188,509.76257 C -119.1883,509.76257 -123.12491,502.55724 -123.12491,495.51692 C -123.12491,486.63533 -116.42508,478.59187 -107.45706,478.59187 C -103.76927,478.59187 -100.58698,479.51644 -98.494268,481.1927 C -98.5807,482.95278 -99.494789,485.29956 -100.41936,486.4677 L -101.00605,486.55414 C -103.43663,483.36661 -106.78655,482.19846 -109.72002,482.19846 C -111.7263,482.19846 -113.74306,482.69872 -115.16264,484.12355 C -116.67652,485.63219 -117.5068,488.14921 -117.5068,491.58032 C -117.5068,498.95589 -114.40832,505.99359 -106.11342,505.99359 C -103.18258,505.99359 -100.08148,505.15284 -97.318262,503.48181 L -96.650374,504.90664 C -99.494789,507.99987 -104.61264,509.76257 -108.88188,509.76257"
       id="path63"
       style="fill:#ffffff;fill-opacity:1;fill-rule:nonzero;stroke:none" />
    <path
       d="M -62.139188,508.92496 C -68.757822,501.46819 -74.870957,493.75999 -80.572882,486.72229 L -82.833223,489.23669 L -82.833223,491.91871 C -82.833223,506.32413 -82.833223,506.74582 -77.385357,507.50014 L -77.385357,508.92496 L -94.56447,508.92496 L -94.56447,507.50014 C -89.616865,507.08107 -89.116604,506.24294 -89.116604,492.83804 L -89.116604,476.24824 C -89.116604,463.84649 -89.368044,462.75953 -94.56447,462.34047 L -94.56447,460.91564 L -77.385357,460.91564 L -77.385357,462.34047 C -82.24653,463.01097 -82.833223,463.76529 -82.833223,476.08061 L -82.833223,485.12983 L -70.182649,471.13563 C -67.084175,467.78571 -66.832735,466.02825 -66.832735,465.02249 C -66.832735,463.51647 -67.670868,462.75953 -69.763582,462.34047 L -69.763582,460.91564 L -53.676661,460.91564 L -53.676661,462.34047 C -58.370207,462.50809 -61.052234,465.27131 -66.078415,470.80299 L -76.384835,482.19899 C -73.202548,486.30322 -67.752062,492.83804 -64.488581,496.69345 C -56.020815,506.49438 -53.338788,507.2487 -50.656762,507.50014 L -50.656762,508.92496 L -62.139188,508.92496 z"
       id="path67"
       style="fill:#ffffff;fill-opacity:1;fill-rule:nonzero;stroke:none" />
    <path
       d="M -42.874443,470.55103 C -45.056209,470.55103 -46.643424,468.87476 -46.643424,466.69823 C -46.643424,464.51909 -45.056209,462.84544 -42.874443,462.84544 C -40.692677,462.84544 -39.01903,464.51909 -39.01903,466.69823 C -39.01903,468.87476 -40.692677,470.55103 -42.874443,470.55103 M -50.831471,508.92444 L -50.831471,507.49961 C -45.556469,507.25079 -45.475275,507.25079 -45.475275,496.60912 L -45.475275,489.23616 C -45.475275,480.85483 -46.061969,480.60601 -50.917903,480.43576 L -50.917903,479.01094 L -39.692155,479.01094 L -39.692155,496.69293 C -39.692155,507.25079 -39.524529,507.16698 -34.830982,507.49961 L -34.830982,508.92444 L -50.831471,508.92444 z"
       id="path71"
       style="fill:#ffffff;fill-opacity:1;fill-rule:nonzero;stroke:none" />
    <path
       d="M -11.035058,508.92496 L -11.035058,507.50014 C -6.7605781,507.2487 -6.4279439,507.16488 -6.4279439,497.19371 L -6.4279439,491.16177 C -6.4279439,483.95383 -9.3640296,482.36399 -13.046578,482.36399 C -17.572498,482.36399 -21.346717,485.79772 -21.346717,488.56356 L -21.346717,496.69345 C -21.346717,507.2487 -21.17909,507.16488 -16.480305,507.50014 L -16.480305,508.92496 L -32.486032,508.92496 L -32.486032,507.50014 C -27.211031,507.2487 -27.121979,507.2487 -27.121979,496.60964 L -27.121979,489.23669 C -27.121979,480.85535 -27.711291,480.60391 -32.567226,480.43629 L -32.567226,479.01146 L -21.346717,479.01146 L -21.346717,484.37551 C -18.245623,480.43629 -14.222584,478.59239 -10.36717,478.59239 C -5.5898106,478.59239 -0.64744334,481.44205 -0.64744334,490.49127 L -0.64744334,497.19371 C -0.64744334,507.16488 -0.64744334,507.2487 4.6301773,507.50014 L 4.6301773,508.92496 L -11.035058,508.92496 z"
       id="path75"
       style="fill:#ffffff;fill-opacity:1;fill-rule:nonzero;stroke:none" />
    <path
       d="M 17.85722,509.67849 C 13.920612,509.67849 9.1432527,508.67273 7.9698661,506.74764 C 7.5507994,506.07451 7.2129269,502.05409 7.2129269,499.87495 L 8.975626,499.87495 C 10.146393,505.23638 13.750367,507.49934 18.024846,507.49934 C 22.377901,507.49934 24.976115,505.82569 24.976115,503.06247 C 24.976115,494.84876 7.7996202,496.8629 7.7996202,486.8053 C 7.7996202,482.19819 11.406213,478.3454 17.60578,478.3454 C 21.793827,478.3454 26.065688,479.51616 26.400941,479.85142 C 26.738814,480.18667 27.239074,482.95251 27.239074,487.30818 L 25.895442,487.30818 C 25.395181,485.5481 22.8834,480.3543 17.270527,480.3543 C 14.507306,480.3543 12.244346,481.6115 12.244346,484.12328 C 12.244346,491.24741 29.334408,489.56852 29.334408,500.62927 C 29.334408,505.57163 24.976115,509.67849 17.85722,509.67849"
       id="path79"
       style="fill:#ffffff;fill-opacity:1;fill-rule:nonzero;stroke:none" />
    <path
       d="M 55.554884,489.48656 L 40.141089,489.48656 C 40.64135,483.95488 43.158369,480.8564 47.935729,480.8564 C 52.624037,480.8564 55.47369,483.95488 55.554884,489.48656 M 61.00537,504.90559 L 60.334863,503.48076 C 57.571642,505.15441 54.473168,505.99254 51.534463,505.99254 C 43.239563,505.99254 39.808455,498.53578 40.059895,491.74952 L 61.00537,491.74952 C 61.340623,484.87944 57.73665,478.34462 49.109115,478.34462 C 40.38991,478.34462 34.528215,485.29851 34.528215,494.93442 C 34.528215,502.47238 38.383628,509.76152 48.771243,509.76152 C 53.043103,509.76152 58.158336,508.00144 61.00537,504.90559"
       id="path83"
       style="fill:#ffffff;fill-opacity:1;fill-rule:nonzero;stroke:none" />
    <path
       d="M 89.309131,486.30452 L 83.358385,503.22434 C 79.421777,514.36889 77.24525,521.74446 66.095458,526.26776 C 65.262563,525.51344 63.67011,522.99904 63.245805,521.57684 C 71.71357,519.64913 75.901618,515.96396 78.583644,509.09389 L 70.789004,491.74977 C 66.181891,481.52716 65.846637,481.02428 62.41291,480.85403 L 62.41291,479.43183 L 76.401878,479.43183 L 76.401878,480.85403 C 74.22797,481.10809 73.557464,481.7786 73.557464,482.95199 C 73.557464,484.20919 74.144157,485.63401 75.647558,489.23537 L 81.260432,502.38882 L 87.040933,485.37995 C 88.046693,482.44911 86.627105,481.02428 84.028891,480.85403 L 84.028891,479.43183 L 94.835573,479.43183 L 94.835573,480.85403 C 92.745478,480.85403 90.647525,482.44911 89.309131,486.30452"
       id="path87"
       style="fill:#ffffff;fill-opacity:1;fill-rule:nonzero;stroke:none" />
    <path
       d="M 129.35594,502.97499 C 126.83892,504.90532 122.56706,505.48939 119.13595,505.48939 C 110.33555,505.48939 103.37904,499.28982 103.37904,490.9923 C 103.37904,485.7985 105.642,482.5324 109.08097,481.61045 C 113.27163,489.06722 121.14223,496.94305 129.35594,502.97499 M 148.79539,508.92574 L 148.79539,507.50091 C 145.44024,507.16566 140.41406,504.39982 135.05524,500.46321 C 136.98033,497.28092 137.3994,492.66857 137.89966,489.23746 C 138.32396,486.304 140.50049,486.38519 141.92008,486.21756 L 141.92008,484.87917 L 128.35018,484.87917 L 128.35018,486.21756 C 131.5377,486.63663 134.63618,487.0557 134.63618,491.99806 C 134.63618,494.59628 134.21187,497.19449 133.03848,498.95457 C 121.14223,489.65391 110.16792,476.7519 110.16792,470.30089 C 110.16792,467.11598 112.09301,465.60734 115.1941,465.60734 C 119.04952,465.60734 122.7373,468.20294 124.49476,473.23174 L 125.83578,473.23174 L 125.66815,464.18251 L 124.32452,464.18251 C 124.24332,464.77183 123.65663,465.19089 123.324,465.19089 C 121.64773,465.19089 119.30358,463.347 115.1941,463.347 C 110.67342,463.347 105.97987,466.19403 105.97987,472.39098 C 105.97987,474.73776 106.73419,476.9169 107.99139,479.43392 C 101.79183,481.36163 98.523108,486.72306 98.523108,492.8362 C 98.523108,503.98075 106.98563,510.01269 116.53512,510.01269 C 122.48586,510.01269 127.17417,508.1688 131.5377,504.48101 C 134.21187,506.41134 136.8939,508.25261 138.48897,508.92574 L 148.79539,508.92574 z"
       id="path91"
       style="fill:#ffffff;fill-opacity:1;fill-rule:nonzero;stroke:none" />
    <path
       d="M 172.57952,510.0973 C 158.67698,510.0973 149.87658,500.88045 149.87658,486.21836 C 149.87658,470.88576 159.43392,459.74382 173.7529,459.74382 C 180.87966,459.74382 183.56168,461.75272 186.41134,461.75272 C 187.66592,461.75272 188.49881,461.24984 189.00431,460.2467 L 190.34794,460.2467 L 190.84821,474.57354 L 189.42338,474.57354 C 187.07922,466.27864 182.29925,462.0906 174.00958,462.0906 C 163.2841,462.0906 156.75189,469.62856 156.75189,483.11727 C 156.75189,497.11147 163.44648,506.49333 174.67747,506.49333 C 180.96609,506.49333 187.07922,503.72749 189.92888,499.87469 L 191.26727,501.38071 C 188.66644,505.65519 181.62874,510.0973 172.57952,510.0973"
       id="path95"
       style="fill:#ffffff;fill-opacity:1;fill-rule:nonzero;stroke:none" />
    <path
       d="M 220.74704,495.93704 C 220.74704,502.89355 217.64595,507.16541 211.35995,507.16541 C 205.9147,507.16541 200.80732,502.13661 200.80732,492.00043 C 200.80732,484.79249 204.23581,480.85588 210.02155,480.85588 C 215.38561,480.85588 220.74704,486.0523 220.74704,495.93704 M 226.69255,494.01195 C 226.69255,488.22883 224.34839,483.36766 220.07391,480.68825 C 217.55951,479.09842 214.37723,478.3441 210.85969,478.3441 C 201.47259,478.3441 194.85396,485.21155 194.85396,494.01195 C 194.85396,499.87365 197.20073,504.73744 201.47259,507.41685 C 203.98961,509.00668 207.25309,509.67719 210.77325,509.67719 C 220.07391,509.67719 226.69255,502.97474 226.69255,494.01195"
       id="path99"
       style="fill:#ffffff;fill-opacity:1;fill-rule:nonzero;stroke:none" />
    <path
       d="M 271.00832,508.92496 L 271.00832,507.50014 C 275.364,507.16488 275.44781,506.74582 275.44781,497.69659 L 275.44781,490.8239 C 275.44781,484.62433 273.01984,482.36399 269.24562,482.36399 C 264.80875,482.36399 260.95596,485.71653 260.95596,488.73381 L 260.95596,497.19371 C 260.95596,506.662 260.86953,507.08107 265.81451,507.50014 L 265.81451,508.92496 L 250.90098,508.92496 L 250.90098,507.50014 C 255.08903,507.2487 255.34309,506.74582 255.34309,496.86108 L 255.34309,490.8239 C 255.34309,484.87839 253.41276,482.36399 248.88946,482.36399 C 244.70141,482.36399 240.76219,485.71653 240.76219,488.81762 L 240.76219,497.53159 C 240.76219,507.08107 241.18125,507.08107 245.62074,507.50014 L 245.62074,508.92496 L 229.78788,508.92496 L 229.78788,507.50014 C 234.81144,507.41632 234.98169,507.41632 234.98169,497.78041 L 234.98169,489.23669 C 234.98169,480.85535 234.39761,480.60391 229.5312,480.43629 L 229.5312,479.01146 L 240.76219,479.01146 L 240.76219,484.37551 C 243.10634,481.19323 247.12676,478.59239 251.23361,478.59239 C 256.26241,478.59239 259.19588,481.02298 260.36927,485.12983 C 263.13249,481.27704 266.9879,478.59239 271.76002,478.59239 C 277.04026,478.59239 281.56618,481.69349 281.56618,489.98839 L 281.56618,497.78041 C 281.56618,506.49438 281.31474,507.2487 286.75999,507.50014 L 286.75999,508.92496 L 271.00832,508.92496 z"
       id="path103"
       style="fill:#ffffff;fill-opacity:1;fill-rule:nonzero;stroke:none" />
    <path
       d="M 315.90214,494.59628 C 315.90214,502.39092 312.63342,507.41448 306.52028,507.41448 C 302.58105,507.41448 298.22538,505.15414 298.22538,502.22067 L 298.22538,487.39357 C 298.22538,484.87917 301.83197,482.36477 305.84977,482.36477 C 312.04672,482.36477 315.90214,486.9745 315.90214,494.59628 M 321.93408,493.84196 C 321.93408,485.13061 316.3212,478.59317 308.5318,478.59317 C 304.17613,478.59317 300.65073,480.60469 298.22538,483.45434 L 298.22538,479.01224 L 287.25107,479.01224 L 287.25107,480.43706 C 291.85557,480.60469 292.44488,480.85613 292.44488,490.66229 L 292.44488,511.10226 C 292.44488,521.74394 292.6937,522.58207 287.49989,522.83089 L 287.49989,524.25834 L 303.50038,524.25834 L 303.50038,522.83089 C 297.80631,522.66588 298.22538,521.74394 298.22538,510.59938 L 298.22538,506.49515 C 300.48834,508.75549 304.00588,509.67744 307.18817,509.67744 C 316.24001,509.67744 321.93408,502.8938 321.93408,493.84196"
       id="path107"
       style="fill:#ffffff;fill-opacity:1;fill-rule:nonzero;stroke:none" />
    <path
       d="M 342.96102,501.80527 C 342.96102,504.31443 339.6111,506.41238 336.92908,506.41238 C 334.4173,506.41238 332.32196,504.81731 332.32196,501.38097 C 332.32196,495.26783 338.69178,495.93572 342.96102,493.59418 L 342.96102,501.80527 z M 355.36277,508.92417 L 355.36277,507.49934 L 353.60531,507.49934 C 349.41726,507.49934 348.91176,506.07451 348.91176,500.12377 L 348.91176,490.07402 C 348.91176,488.14894 348.74152,486.38624 348.32769,484.96141 C 346.90286,480.26786 343.04745,478.5916 337.77245,478.5916 C 334.50373,478.5916 329.72899,479.7676 327.12816,482.03056 C 327.29578,483.45539 328.55298,486.21861 329.39112,487.05674 L 330.14544,486.88912 C 331.48383,483.62302 333.74679,481.27624 337.34814,481.27624 C 341.28999,481.27624 342.96102,484.03946 342.96102,487.30818 L 342.96102,490.74191 C 342.96102,493.00487 332.90866,493.42394 328.80442,496.8629 C 327.3796,498.11487 326.37645,499.70994 326.37645,501.88647 C 326.37645,506.57739 329.64517,509.67849 334.58492,509.67849 C 337.68602,509.67849 340.36542,508.67273 343.12864,505.57163 C 343.54771,507.75078 345.39684,508.92417 348.32769,508.92417 L 355.36277,508.92417 z"
       id="path111"
       style="fill:#ffffff;fill-opacity:1;fill-rule:nonzero;stroke:none" />
    <path
       d="M 376.30196,508.92496 L 376.30196,507.50014 C 380.5712,507.2487 380.90384,507.16488 380.90384,497.19371 L 380.90384,491.16177 C 380.90384,483.95383 377.97299,482.36399 374.2852,482.36399 C 369.76452,482.36399 365.99554,485.79772 365.99554,488.56356 L 365.99554,496.69345 C 365.99554,507.2487 366.15793,507.16488 370.85147,507.50014 L 370.85147,508.92496 L 354.85099,508.92496 L 354.85099,507.50014 C 360.12599,507.2487 360.21242,507.2487 360.21242,496.60964 L 360.21242,489.23669 C 360.21242,480.85535 359.62573,480.60391 354.76979,480.43629 L 354.76979,479.01146 L 365.99554,479.01146 L 365.99554,484.37551 C 369.09663,480.43629 373.11443,478.59239 376.96461,478.59239 C 381.74721,478.59239 386.68434,481.44205 386.68434,490.49127 L 386.68434,497.19371 C 386.68434,507.16488 386.68434,507.2487 391.9672,507.50014 L 391.9672,508.92496 L 376.30196,508.92496 z"
       id="path115"
       style="fill:#ffffff;fill-opacity:1;fill-rule:nonzero;stroke:none" />
    <path
       d="M 416.7521,486.30452 L 410.80135,503.22434 C 406.86474,514.36889 404.68821,521.74446 393.53842,526.26776 C 392.70553,525.51344 391.11307,522.99904 390.69401,521.57684 C 399.15654,519.64913 403.34458,515.96396 406.02661,509.09389 L 398.23197,491.74977 C 393.62747,481.52716 393.2896,481.02428 389.85587,480.85403 L 389.85587,479.43183 L 403.84484,479.43183 L 403.84484,480.85403 C 401.67093,481.10809 401.00043,481.7786 401.00043,482.95199 C 401.00043,484.20919 401.58974,485.63401 403.09576,489.23537 L 408.70864,502.38882 L 414.48914,485.37995 C 415.4949,482.44911 414.07007,481.02428 411.47186,480.85403 L 411.47186,479.43183 L 422.28378,479.43183 L 422.28378,480.85403 C 420.18844,480.85403 418.09049,482.44911 416.7521,486.30452"
       id="path119"
       style="fill:#ffffff;fill-opacity:1;fill-rule:nonzero;stroke:none" />
  </g>
</svg>
