<?xml version="1.0" encoding="utf-8"?>
<!-- Generator: Adobe Illustrator 19.0.0, SVG Export Plug-In . SVG Version: 6.00 Build 0)  -->
<svg version="1.1"
	 id="Layer_1" xmlns:svg="http://www.w3.org/2000/svg" xmlns:dc="http://purl.org/dc/elements/1.1/" xmlns:rdf="http://www.w3.org/1999/02/22-rdf-syntax-ns#" xmlns:cc="http://creativecommons.org/ns#" inkscape:version="0.48.4 r9939" inkscape:output_extension="org.inkscape.output.svg.inkscape" sodipodi:version="0.32" sodipodi:docname="Warner_Bros_logo.svg" xmlns:sodipodi="http://sodipodi.sourceforge.net/DTD/sodipodi-0.dtd" xmlns:inkscape="http://www.inkscape.org/namespaces/inkscape"
	 xmlns="http://www.w3.org/2000/svg" xmlns:xlink="http://www.w3.org/1999/xlink" x="0px" y="0px" viewBox="-302 95.8 354.6 370.2"
	 style="enable-background:new -302 95.8 354.6 370.2;" xml:space="preserve">
<style type="text/css">
	.st0{fill:#FFFFFF;}
</style>
<sodipodi:namedview  id="base" inkscape:current-layer="Layer_1" inkscape:pageopacity="0.0" inkscape:window-width="1360" inkscape:window-x="-8" inkscape:window-y="-8" inkscape:pageshadow="2" inkscape:window-height="706" pagecolor="#ffffff" objecttolerance="10.0" bordercolor="#666666" inkscape:cy="369.95031" showgrid="false" gridtolerance="10.0" guidetolerance="10.0" inkscape:cx="355.80569" inkscape:zoom="256" borderopacity="1.0" inkscape:window-maximized="1">
	</sodipodi:namedview>
<path id="path5" inkscape:connector-curvature="0" class="st0" d="M-124.7,95.8c-8.7,1.8-84.9,11.8-94.4,16.6
	c-2.2,4.4-6.8,18-8.2,20.2c-6.1,1.3-31,6-32.5,6.9c-0.9,2.6-6.6,13.8-7.9,15.2c-5.3,1.3-29.8,5.9-32.8,8.1
	c-1.7,10.5-8.4,115.6,35.4,184.4S-144.9,461.6-124.7,466h0.2c20.1-4.4,96.6-50.1,140.3-118.9C59.5,278.4,53,173.3,51.3,162.8
	c-3.1-2.2-27.6-6.7-32.8-8.1c-1.3-1.3-7-12.5-7.9-15.2c-1.6-0.9-26.4-5.6-32.5-6.9c-1.4-2.2-6-15.8-8.2-20.2
	C-39.7,107.7-116,97.7-124.7,95.8z M-124.7,122.7c7.5,1.6,72.7,10.3,80.8,14.4c1.9,3.7,5.7,15.4,6.9,17.2c5.2,1.1,26.6,5.1,27.9,5.8
	c0.7,2.2,5.5,12,6.6,13.1c4.5,1.1,25.5,4.9,28.1,6.8c1.5,9,7.1,98.8-30.3,157.5c-37.4,58.8-102.8,97.9-120,101.7h-0.2
	c-17.2-3.7-82.5-42.9-120-101.7C-282.1,278.8-276.5,189-275,180c2.6-1.9,23.6-5.7,28.1-6.8c1.1-1.1,5.9-10.9,6.6-13.1
	c1.3-0.8,22.5-4.7,27.8-5.8c1.2-1.8,5.2-13.5,7.1-17.2C-197.3,133-132.1,124.3-124.7,122.7L-124.7,122.7z"/>
<path id="path9" inkscape:connector-curvature="0" class="st0" d="M-112.7,151.4c-2.5,0.2-2.8,2-2.8,2.7
	c-0.5,84.1-0.3,173.3-0.9,259.7c0.6,2.7,4.9-1.5,7.4-2.8C-77.2,393.4,22.3,297-34.9,262.5c43.8-28.6,36-56,16.6-70.9
	c-40.1-30.9-85.9-38.5-91.2-39.9C-110.9,151.4-111.9,151.3-112.7,151.4L-112.7,151.4z M-86.1,186c0.6-0.3,26.3,9.2,40.4,18.8
	c16.1,11,10.7,21.6,1.3,27.9c-5.1,3.5-36.7,26.2-42,27.5C-86.5,255.8-86.5,206.4-86.1,186L-86.1,186z M-62.5,282.1
	c3.5,0.1,6.9,1.2,9.3,3.8c2.2,2.1,11.8,12.5-8.7,42.1c-7.6,13.5-23.6,30.4-25.4,32c-0.2,0.1-0.3-0.3-0.5-0.2
	c0.2-9.7-0.1-56.4,0.5-69.5C-86.2,289.9-73.1,281.8-62.5,282.1L-62.5,282.1z"/>
<path id="path15" inkscape:connector-curvature="0" class="st0" d="M-221.5,181.7c-2.6,1.1-25,15.3-27.2,17.6
	c-0.6,19.8,4.7,73.3,24.3,115c2.5,5.3,5.2,10.2,8.1,14.7c5.6,9.6,5.9,8.9,12.4-0.4c4.5-6.1,11-15.1,12.6-17
	c2.2,7.5,16.7,54.1,37.1,82.3c9,12.5,22.9,24.3,22.9,19.5c-0.6-47.6-1.9-253.9-0.4-262.3c-6-0.1-25.8,2.4-29.7,4.5
	c-0.3,7.5,2.7,149,0.8,165c-13.8-33.7-18.5-122.6-15.8-159.2c-7.5,1.5-25.7,8.8-28.3,11.4c-3.4,6.7,1.2,80.6,6,105.4
	c-1.6,2.6-6.3,9.6-7.1,10.7C-215.2,271.9-224.3,219.3-221.5,181.7z"/>
</svg>
