<?xml version="1.0" encoding="utf-8"?>
<!-- Generator: Adobe Illustrator 19.0.0, SVG Export Plug-In . SVG Version: 6.00 Build 0)  -->
<svg version="1.1" id="Layer_1" xmlns="http://www.w3.org/2000/svg" xmlns:xlink="http://www.w3.org/1999/xlink" x="0px" y="0px"
	 viewBox="-375 267.7 207.9 26.3" style="enable-background:new -375 267.7 207.9 26.3;" xml:space="preserve">
<style type="text/css">
	.st0{fill:#FFFFFF;}
</style>
<path class="st0" d="M-368.8,267.7c-5.4,0-5.5,0.3-5.3,1.9h1.8c1.7,0,2.1,0.2,2.1,1.7V289c0,2.5-0.7,2.8-4.7,3
	c-0.1,0.5-0.1,1.1,0,1.5h14.1c10.7,0,15.1-5.2,15.1-12.9c0-8-4.7-12.9-15.5-12.9L-368.8,267.7z M-365.5,288.7v-18.8h3.9
	c7.2,0,10.9,4.2,10.9,11.4c0,8.1-4.1,10.1-10.5,10.1C-364.7,291.4-365.5,291-365.5,288.7 M-329.2,267.9c-1.8,0-2.2,0.6-3.5,3.5
	l-7.4,17.5c-1,2.4-1.3,2.6-4.2,3c-0.1,0.5-0.1,1.1,0,1.5h10.7c0.9,0,1.2-0.6,0.9-1.7h-3.2c-2.1,0-2.1-0.6-1.2-2.8l1.5-4.1h9.7
	l2.4,5.6c0.4,1,0,1.3-4.1,1.4c-0.1,0.5-0.1,1.1,0,1.5h12.1c1,0,1.2-0.6,1-1.7h-0.9c-1.9,0-2.3-0.3-2.7-1.3l-8.6-19.7
	c-0.6-1.3-0.9-1.9-1-2.8L-329.2,267.9z M-330.8,273.1l4.1,9.7h-8L-330.8,273.1z M-310.4,268.4c-1.6,0-1.8,0.7-1.6,1.7h1.8
	c1.7,0,2.1,0.2,2.1,1.6v17.9c0,1.5-0.7,1.9-3.7,2.4c-0.2,0.5-0.2,1.1,0,1.5h11.4c1.1,0,1.2-0.6,1-1.7h-2c-1.6,0-1.9-0.3-1.9-1.6
	v-17.8c0-1.6,0.5-2.3,3.7-2.5c0.1-0.4,0.1-1.1,0-1.5L-310.4,268.4z M-265.5,268.4l-8.6,18l-9.4-18h-7.6c-1.6,0-1.8,0.8-1.6,1.7
	c3.7,0.1,3.9,0.5,3.8,1.7l-1.5,17.6c-0.1,1.6-0.5,2.3-4.6,2.5c-0.1,0.5-0.1,1,0,1.5h12.3c1.1,0,1.2-0.6,0.9-1.7h-2
	c-4,0-4-0.4-3.9-1.8l1.2-16.8l10.3,20.4c0.9,0,1.2-0.2,1.8-1.6l9-18.9l1.7,16.3c0.2,1.8-0.3,2.2-3.5,2.4l-2,0.1
	c-0.1,0.5-0.1,1,0,1.5h13.2c1,0,1.2-0.6,1-1.7c-2.9-0.4-3.5-0.5-3.6-1.7l-1.8-18.3c-0.1-1.1,0.1-1.7,3.6-1.9c0.2-0.5,0.2-1,0-1.5
	L-265.5,268.4z M-247.6,268.4c-1.6,0-1.8,0.7-1.6,1.7h1.8c1.6,0,2.1,0.2,2.1,1.6v17.1c0,2.4-0.8,2.9-4.5,3.1c-0.1,0.5-0.1,1,0,1.5
	h18.2c0.5-2.3,1.2-4.5,1.9-6.7c0.4-1.1-0.1-1.6-1.1-1.6l-0.1,0l-1.1,2.3c-1.6,3.4-1.9,3.6-4.7,3.6h-2.4c-1.1,0-1.7-0.3-1.7-1.6
	v-16.5c0-2.4,0.7-2.8,4.7-3c0.1-0.4,0.1-1.1,0-1.5L-247.6,268.4z M-223.4,268.4c-1.6,0-1.8,0.7-1.6,1.7h1.8c1.7,0,2,0.2,2,1.6V289
	c0,2.5-0.7,2.8-4.7,3c-0.1,0.5-0.1,1,0,1.5h20.6c0.5-2.3,1.2-4.6,1.9-6.7c0.4-1.1-0.1-1.6-1.1-1.6l-0.1,0l-1.1,2.3
	c-1.6,3.4-1.9,3.6-4.7,3.6h-3.2c-2.5,0-2.9-0.6-2.9-1.9v-6.6h3.9c1,0,1.5,0.3,1.9,3.3c0.2,0.1,0.4,0.1,0.6,0.1c0.2,0,0.5,0,0.7-0.1
	c-0.1-2.4-0.1-5,0-7.4c0.1-1.2-0.3-1.4-1.1-1.4h-0.4l-0.3,1.9c-0.1,1-0.3,1.3-1.5,1.3h-3.9v-9.6h6c2.1,0,2.8,0.6,3.5,2.9l0.5,1.7
	c0.1,0,0.2,0,0.3,0c1,0,1.4-0.6,1.2-1.7c-0.3-1.6-0.5-3.4-0.6-5L-223.4,268.4z M-196.6,268.3c-1.5,0.1-1.8,0.8-1.5,1.8h1.8
	c1.5,0,2.1,0.2,2.1,1.7v17.3c0,2.3-0.7,2.7-4,2.9c-0.1,0.5-0.1,1.1,0,1.5h11.8c1.1,0,1.2-0.6,1.1-1.7h-1.9c-1.9,0-2.3-0.4-2.3-1.5
	v-5.5h2.5c2.3,0,2.4,0.1,3.3,1.8c1,1.7,2.3,3.2,3.6,4.3c2.8,2.4,5,3.1,8.5,3.1c4,0,4.9-1,4.6-2.3c-3.3,0-4.9-0.3-9.8-4.3
	c-1.4-1.2-4.2-3.7-4.2-3.7c3.1-1.3,5.1-3.9,5.1-7c0-5.1-4-8.5-11.1-8.5C-192.5,268.2-194.8,268.2-196.6,268.3 M-189.6,270.4h1.3
	c4.2,0,7.2,1.6,7.2,6.6c0,5-3,5.6-6.7,5.6h-1.8L-189.6,270.4z"/>
</svg>
