<?xml version="1.0" encoding="utf-8"?>
<!-- Generator: Adobe Illustrator 19.0.0, SVG Export Plug-In . SVG Version: 6.00 Build 0)  -->
<svg version="1.1" id="svg2" xmlns:svg="http://www.w3.org/2000/svg"
	 xmlns="http://www.w3.org/2000/svg" xmlns:xlink="http://www.w3.org/1999/xlink" x="0px" y="0px" viewBox="-385 252 188.7 57"
	 style="enable-background:new -385 252 188.7 57;" xml:space="preserve">
<style type="text/css">
	.st0{fill:#FFFFFF;}
</style>
<path id="path53" class="st0" d="M-363.2,261.2c-4.2-1.9-6.7-2.6-9.2-2.6c-2.6,0-4.3,0.9-4.3,2.4c0,4.4,14.9,3.1,14.9,13.3
	c0,5.6-4.7,8.8-11.2,8.8c-5.1,0-7.6-1.3-10.5-2.8V274c4.2,2.8,6.7,3.8,10,3.8c2.8,0,4.3-1,4.3-2.7c0-4.8-14.9-3-14.9-13.5
	c0-5,4.4-8.4,11.1-8.4c3.3,0,6.2,0.7,9.9,2.3V261.2"/>
<path id="path55" class="st0" d="M-342.4,281.8c-2.5,0.9-4.6,1.3-6.7,1.3c-6.9,0-11.4-4-11.4-10.2c0-6,4.7-10.3,11.1-10.3
	c2,0,4.6,0.5,6.6,1.3v4.6c-1.6-0.9-3.5-1.3-5-1.3c-3.7,0-6.1,2.2-6.1,5.7c0,3.5,2.4,5.8,5.9,5.8c1.5,0,2.8-0.3,5.6-1.4V281.8"/>
<path id="path57" class="st0" d="M-288.4,270.7c0.3-2.7,1.8-4.3,4.3-4.3c2.4,0,4,1.6,4.3,4.3H-288.4z M-284.5,262.6
	c-6.1,0-10.4,4.3-10.4,10.3c0,6.1,4.5,10.1,11.4,10.1c1.5,0,5.3,0,8.8-2.6v-3.9c-2.9,2.1-4.8,2.8-7.3,2.8c-3.9,0-6.3-2-6.5-5.5h14.2
	C-274.1,266.7-278.8,262.6-284.5,262.6"/>
<path id="path59" class="st0" d="M-272,282.7h6.2V263h-6.2V282.7z"/>
<path id="path61" class="st0" d="M-248.6,277.3c-1.3,1.2-2.4,1.6-3.7,1.6c-2.9,0-4.8-2.4-4.8-6c0-3.9,1.8-6.2,5-6.2
	c1.1,0,2.6,0.5,3.5,1.2V277.3z M-248.6,253.6v10.3c-1.7-0.8-3.3-1.2-5.1-1.2c-5.6,0-9.5,4.2-9.5,10.2c0,5.9,3.9,10.2,9.2,10.2
	c2.1,0,3.7-0.5,5.5-2v1.6h6.2v-29.1H-248.6"/>
<path id="path63" class="st0" d="M-233.2,270.7c0.3-2.7,1.8-4.3,4.3-4.3c2.4,0,4,1.6,4.3,4.3H-233.2z M-229.4,262.6
	c-6.1,0-10.4,4.3-10.4,10.3c0,6.1,4.5,10.1,11.4,10.1c1.5,0,5.3,0,8.8-2.6v-3.9c-2.9,2.1-4.8,2.8-7.3,2.8c-3.9,0-6.3-2-6.5-5.5h14.1
	C-218.9,266.7-223.7,262.6-229.4,262.6"/>
<g>
	<g id="g67">
		<path id="path73" class="st0" d="M-210,268.7L-210,268.7c1.9-4.1,4-6,6.4-6c1.2,0,2.3,0.5,4.1,1.8l-1.7,5.5
			c-1.6-1-2.7-1.5-3.7-1.5c-2.3,0-3.7,2.1-5.1,5.8v8.5h-6.2V263h6.2V268.7"/>
		<path id="path75" class="st0" d="M-265.5,254.7c0.6,1.5-0.5,3.7-2.3,4.8c-1.9,1.1-3.8,0.8-4.4-0.8c-0.6-1.5,0.5-3.7,2.3-4.8
			C-268.1,252.8-266.1,253.2-265.5,254.7"/>
	</g>
</g>
<path id="path77" class="st0" d="M-320.1,270.2c0-5.3-3.6-7.5-7.2-7.5c-2.4,0-4.4,1-6.2,3.3h-0.1v-12.3h-6.2v29.1h6.2v-12.5
	c1.4-2.1,2.7-3,4.1-3c1.9,0,3.2,1.4,3.2,4.3v6.9c2.1-1.1,4.2-1.7,6.2-2V270.2"/>
<path id="path79" class="st0" d="M-304.6,262.6c-2.5,0-4.4,0.9-6.4,3.2V263h-6.2v13.4c2.1,0.2,4.9,1.2,6.2,2.8V270
	c1.6-2.4,2.8-3.3,4.3-3.3c1.8,0,3.1,1.2,3.1,3.9v12h6.2v-12.5C-297.4,264.4-301.5,262.6-304.6,262.6"/>
<path id="path81" class="st0" d="M-294,288.3h-7.2v5.1h6.9v2.2h-6.9v5.3h7.4v2.2h-9.8v-17h9.6V288.3"/>
<path id="path83" class="st0" d="M-288.1,303.1h2.2v-17h-2.2V303.1z"/>
<path id="path85" class="st0" d="M-275,293.6c1.6,0,2.5,1.1,2.6,2.8h-5.6C-277.7,294.6-276.7,293.6-275,293.6z M-278,297.9h7.9
	c0-4.1-1.9-6.1-4.9-6.1c-3.1,0-5.2,2.3-5.2,5.7c0,3.1,1.9,6,5.4,6c1.9,0,3.1-0.4,4.5-1.3v-2.1c-1.3,0.9-2.6,1.4-3.9,1.4
	C-276.4,301.2-277.7,300.1-278,297.9"/>
<path id="path87" class="st0" d="M-255.8,294.9c-1.3-0.9-2.1-1.1-3.1-1.1c-2,0-3.4,1.5-3.4,3.8c0,2.3,1.5,3.7,3.8,3.7
	c0.9,0,1.8-0.2,3-0.7v2.2c-0.7,0.4-2.2,0.6-3.3,0.6c-3.3,0-5.7-2.3-5.7-5.6c0-3.7,2.1-6,5.5-6c1.3,0,2.2,0.3,3.2,0.8V294.9"/>
<path id="path89" class="st0" d="M-245.7,291.9h3.5v2h-3.5v5.7c0,1.3,1,1.7,1.6,1.7c0.8,0,1.6-0.3,2.5-0.8v2.1
	c-0.8,0.4-2,0.7-2.7,0.7c-2.4,0-3.6-1.5-3.6-3.5v-5.9h-1.9v-0.2l4.1-4.1V291.9"/>
<path id="path91" class="st0" d="M-233.8,291.9v2.6h0c1.1-2,2.2-2.8,3.2-2.8c0.9,0,1.7,0.4,2.7,1.3l-1.2,1.9
	c-0.7-0.7-1.5-1.1-2.1-1.1c-1.5,0-2.7,1.5-2.7,3.5v5.8h-2.2v-11.2H-233.8"/>
<path id="path93" class="st0" d="M-205.3,294.9c-1.3-0.9-2.1-1.1-3.1-1.1c-2,0-3.4,1.5-3.4,3.8c0,2.3,1.5,3.7,3.8,3.7
	c0.9,0,1.8-0.2,3-0.7v2.2c-0.8,0.4-2.2,0.6-3.3,0.6c-3.3,0-5.7-2.3-5.7-5.6c0-3.7,2.1-6,5.5-6c1.3,0,2.2,0.3,3.2,0.8V294.9"/>
<path id="path95" class="st0" d="M-222,303.1h2.2v-11.2h-2.2V303.1z"/>
<g>
	<g id="g99">
		<path id="path105" class="st0" d="M-219.7,287.9c0.2,0.5-0.2,1.3-0.8,1.7c-0.7,0.4-1.4,0.3-1.6-0.3c-0.2-0.5,0.2-1.3,0.8-1.7
			C-220.6,287.2-219.9,287.4-219.7,287.9"/>
		<path id="path107" class="st0" d="M-318.4,288.8c-0.4,0-0.6,0.1-0.7,0.2c-0.1,0.1-0.1,0.1-0.1,0.3l-2,7.5
			c-0.5,2.6-3.7,5.3-7.9,5.3h-5.9l1-3.9h3.8c0.4,0,0.7-0.1,0.9-0.4c0.1-0.1,0.2-0.3,0.2-0.5l1.6-6.5c0.5-2.6,3.2-5.5,7.4-5.5h6
			l-0.8,3.5H-318.4z M-317,293.4l0.7-2.4h6.1c0.8-3.5,0.2-6.8-2-8.9c-4.3-4.3-13.4-2.9-20.1,3.6c-1.1,1-1.9,2.1-2.7,3.2h3.7
			l-0.9,2.4h-4.4c-0.4,0.8-0.8,1.5-1.1,2.3h5.2l-0.8,2.4h-5.1c-0.9,3.7-0.3,7.2,1.9,9.4c4.3,4.3,13.3,2.8,20-3.7
			c1.2-1.1,2.1-2.3,3-3.6h-4.7l0.7-2.4h5.5c0.4-0.8,0.8-1.5,1.1-2.3H-317"/>
	</g>
</g>
</svg>
