<?xml version="1.0" encoding="utf-8"?>
<!-- Generator: Adobe Illustrator 19.0.0, SVG Export Plug-In . SVG Version: 6.00 Build 0)  -->
<svg version="1.1" id="Layer_1" xmlns="http://www.w3.org/2000/svg" xmlns:xlink="http://www.w3.org/1999/xlink" x="0px" y="0px"
	 viewBox="770 -256 2500 1073" style="enable-background:new 770 -256 2500 1073;" xml:space="preserve">
<style type="text/css">
	.st0{fill:#FFFFFF;}
</style>
<path class="st0" d="M1818.3,183.7c-35.9-2-40.6-2.7-51.3-10c-4.2-2.7-13.9-4.6-29.1-5.9c-25.2-2-36.9-6.1-36.9-13.7
	c0-4.2-1.7-4.9-12.7-4.9c-22,0-38.6-2.9-38.6-6.4c0-6.1,27.6-12,72.4-15.6c17.4-1.5,45.2-6.1,69.2-11.7c38.6-9,39.8-9.5,34-13.2
	c-10.5-6.8-23.5-29.1-39.6-67.2c-17.4-41.6-19.6-45-45.5-74.1c-29.6-33.2-35.4-44-24.4-44c3.4,0-3.2-8.1-24.2-28.6
	c-38.6-38.4-45.2-51.8-24.4-48.9c5.4,0.7,9.5,1,9.5,0.5c0-0.5-5.6-7.3-12.5-15.2c-21.5-24.4-24.4-36.4-7.3-30.6l7.3,2.7l-5.6-9
	c-6.8-11-11.7-24.7-9.8-27.6c0.7-1.2,3.4-2.2,6.1-2.2c2.7,0,53,27.1,111.7,60.1c121.7,68.7,121.7,68.4,146.2,112.4
	c8.3,14.7,20.8,36.9,27.9,49.4l12.7,23l13.4-30.3c21.8-49.4,21-46,22.2-88c1-41.1,2.4-45,12-33c4.4,5.6,4.4,5.1,4.4-28.6
	c0-29.1,0.5-34.5,3.7-34.5c2,0,5.6,3.9,7.8,8.6l4.4,8.6v-21.3c0-21.3,1.2-25.2,6.8-21.8c5.6,3.4,66.7,149.6,68.2,163
	c2,18.6-2.2,32.8-29.1,96.1c-13.4,32.5-23,58.4-22,59.4c1.2,1.2,8.1,2.7,15.4,3.4c10.8,1,24.2-1.7,73.1-14.4
	c33-8.6,68.2-18.8,78.2-22.5c24.2-8.8,43.5-7.8,64.5,3.4c8.8,4.6,17.8,7.6,23.5,7.6c11.5,0,17.1,2,17.1,5.9c0,5.1-11.2,8.8-33.7,11
	c-11.7,1.2-23.2,3.2-25.4,3.9c-3.4,1.5-4.4,0.5-4.4-4.6c0-6.4-5.9-11.2-13.7-11.2c-2.4,0-6.8-2.9-9.5-6.4c-4.9-6.4-5.1-6.4-10.8-1.7
	c-7.8,6.4-5.4,16.1,5.4,22l7.8,4.2l-18.3,1.7c-27.9,2.7-96.6,27.1-146.2,52.1c-22.5,11.2-50.8,24.4-63.1,29.3
	C1963.2,181.5,1900.7,187.6,1818.3,183.7L1818.3,183.7z"/>
<g>
	<path class="st0" d="M861.3,829.1c-15.4-2.7-28.1-7.8-33.7-14.4c-6.1-6.6-8.6-30.8-27.4-275.5c-8.6-112.9-19.3-249.6-23.7-303.8
		c-5.9-72.1-7.3-99.5-5.4-102.7c10-15.9,131.3-28.4,167.4-17.1c19.3,6.1,24.4,11,26.9,25.4c1,6.6,3.2,101.2,4.6,210
		c1.5,109,2.7,203.6,3.2,210.2c0.5,11,3.4,3.2,32.8-84.3c34.2-102.7,54-170.6,80.9-277.4l16.6-66l11-5.4
		c13.2-6.8,57.9-14.7,95.1-16.9c45.7-2.4,80.7,4.9,88.2,19.1c3.4,6.4,6.6,110.7,9,306.3l1.7,136.9l21.5-64.3
		c11.7-35.2,28.6-89.2,37.4-119.8c13.7-47.4,69.4-253,69.4-255.9c0-2.4,15.4-8.6,32.8-13.2c29.3-7.8,66.2-11,87.5-7.6
		c19.3,2.9,26.6,6.4,32.8,16.1c3.9,5.9,3.9,7.6-2.4,33.5c-21.8,88.5-182.8,542.9-221.5,624.3l-11.7,24.9l-16.9,4.9
		c-54.8,16.4-139.1,19.6-165,6.1c-3.7-2-8.3-5.9-10.3-9c-5.9-9-12.2-100.5-19.1-275c-1.5-43.3-3.7-78-4.6-77
		c-1,1.2-13.9,41.6-28.8,90.2c-45.5,148.1-70.9,221.2-86.5,249.1c-4.4,8.1-7.8,10.5-18.6,14.2C971.8,825.6,890.6,833.7,861.3,829.1z
		 M1568.9,825.4c-65.3-19.1-101.9-79.4-92.9-154c10.3-87,49.6-137.6,127.8-164.3c9.8-3.4,48.2-14.4,85.8-24.4
		c65-17.6,107.3-31.5,117.3-38.9c3.4-2.7,4.9-7.6,5.9-20.3c1.5-21.8-2-32-15.4-44.2c-19.3-17.6-48.2-21.5-73.6-9.5
		c-13.2,6.1-19.3,13-32.8,35.7c-10,17.4-12.2,19.6-26.9,26.9c-27.9,13.7-76.5,19.6-94.4,11.2c-11.7-5.6-15.6-12.2-15.6-26.6
		c0-37.4,29.6-79.7,81.9-116.6c46.9-33.5,103.4-50.8,163.5-50.8c46.9,0.2,79,6.6,111,22.2c45.2,22,65.3,55.2,68.2,113.4
		c1.7,34,0,49.4-23.5,210c-14.2,97.3-18.8,133.5-17.1,139.1c1.2,4.2,5.4,11.5,9,16.1c10.5,13.2,12.7,18.3,12.7,30.3
		c0,22-18.8,36.7-56.7,44.5c-24.4,4.9-65.8,4.9-82.1,0c-24.4-7.3-33.7-20.3-44.5-61.8l-2.7-10.8l-12.7,12
		c-29.3,27.9-62.3,47.7-95.1,57.2C1643.7,828.3,1586.1,830.5,1568.9,825.4z M1719,698.3c17.4-8.6,39.8-27.4,52.8-44.2l10.8-13.9
		l8.1-50.1c4.6-27.6,7.8-50.8,7.1-51.3c-0.5-0.5-11.5,4.9-24.2,12.2c-12.7,7.3-40.6,22.5-62.3,33.2c-53,26.9-69.4,43.5-73.1,73.6
		c-1.7,15.6,0.2,22.5,9.5,31.8C1665.3,707.1,1693.9,710.7,1719,698.3L1719,698.3z M2082.8,824.4c-6.8-2.7-14.9-6.6-17.4-8.8
		c-6.8-6.1-7.8-15.9-21-182.4c-7.3-92.6-24.7-299.4-29.6-348.8c-1.2-13.9-1-15.4,4.4-18.8c3.4-2.2,14.7-6.4,25.4-9.3
		c16.1-4.4,26.2-5.1,63.3-5.4c48.6-0.2,66.2,3.2,73.6,14.4c4.9,7.6,7.3,57,11,226.1c1.5,73.3,2.9,133.5,3.4,134
		c1,1,36.9-107.8,46.4-141.3c4.9-16.9,19.3-71.1,31.8-120.8c13.9-54,24.7-91.9,27.1-94.8c9.5-10.5,53.5-19.1,98-19.1
		c48.9,0,67.2,6.8,70.2,26.4c2.7,17.1,18.1,297.2,18.8,339c0.2,12.2,0.2,12.2,9.8-15.9c15.4-44.5,34.2-112.7,62.1-224.9
		c21.5-87.8,26.4-104.4,31-108c17.1-12.7,86.5-20.8,121.7-14.2c18.8,3.7,25.4,7.3,26.4,15.4c2.9,25.2-151.3,430.5-199,522.6
		c-10.3,19.6-12,21.8-22.7,26.4c-21,9-53.5,13-94.4,12c-46-1.5-58.9-6.4-63.1-24c-2.7-11.7-17.6-233.4-18.8-281.1
		c-0.2-2-7.1,18.3-15.6,45.2c-26.6,85.1-54,157.2-80.2,211c-12.5,25.9-15.6,30.6-23.5,34.5c-17.6,8.8-44,13.2-86,14.2
		C2101.3,828.8,2094,828.3,2082.8,824.4L2082.8,824.4z M2753.8,825.1c-41.1-11.2-71.6-40.3-86.8-82.4c-5.6-15.9-6.4-21.3-6.4-50.8
		c0.2-27.4,1.2-36.9,6.4-56.5c12.5-46.7,37.4-83.1,71.4-104.6c26.9-16.9,45.5-23.5,131.8-46.7c71.6-19.3,86.8-24.2,109.5-34.7
		c15.9-7.1,16.4-7.6,17.8-18.3c2.4-19.1,1.5-28.6-4.2-38.6c-19.6-34.5-75-40.1-101.2-10.3c-4.2,4.9-12.2,16.6-17.6,25.9
		c-9,15.4-11.5,17.8-25.4,24.4c-27.4,13.2-74.8,19.1-93.4,11.5c-13-5.4-16.6-13.2-15.4-32.8c1.5-26.4,14.2-49.6,42-77.7
		c60.6-60.1,130.5-87,217.8-83.4c89.5,3.7,142.8,36.4,158.9,97.3c5.4,20.3,6.8,54.3,3.9,85.3c-1.7,15.4-11.7,88-22.5,161.1
		c-21.5,147.4-21.3,139.8-5.4,160.1c11.5,14.9,13.2,30.1,5.1,44.2c-11.5,19.8-51.8,31.8-101.7,30.1c-49.1-1.7-62.6-11.7-74.1-54.5
		l-5.4-20.5l-19.6,17.1c-36.2,31-66.2,47.2-102.4,54.5C2814.4,829.5,2770.1,829.8,2753.8,825.1L2753.8,825.1z M2905.8,696.8
		c16.1-8.1,48.2-36.7,57-50.8c3.9-6.6,7.3-21.5,13.2-57.7c4.4-26.9,7.6-49.4,7.3-49.9c-0.5-0.5-10.8,4.9-22.5,11.7
		c-12,6.8-39.8,21.8-62.1,33c-22.2,11.5-45,24.4-50.6,29.3c-5.6,4.9-13.4,15.2-17.6,23.7c-16.4,32.5-6.4,57.9,26.4,67.2
		C2872.6,707.8,2888.4,705.6,2905.8,696.8z M3212.3,375.1c-11.5-5.9-18.6-18.3-18.8-33.7c-0.2-16.6,6.4-27.9,20.5-35
		c13.2-6.8,22.5-7.1,35.9-0.7c14.2,6.4,20.3,16.9,20.3,35c0,15.9-3.9,24.4-14.2,32.3C3247.3,379.5,3223.1,380.7,3212.3,375.1z
		 M3242.2,365.6c6.6-2.9,6.8-3.2,1.7-3.4c-3.7-0.2-7.3-3.2-11-9.3l-5.4-9.3l-0.7,9.3c-0.7,7.1-1.7,9-5.6,9c-4.2,0-4.6-2-4.6-21.3
		c0-19.3-0.2-21-3.9-17.6c-2,2.2-4.4,8.3-5.1,13.7c-1.7,12.5,4.4,24.4,14.7,28.8C3231.6,369.7,3233.1,369.7,3242.2,365.6
		L3242.2,365.6z M3257.3,336.5c-1.7-12.7-13-23.5-24.4-23.5c-13.9,0-15.4,4.2-2,5.4c6.8,0.7,13.9,2.7,16.1,4.4
		c4.6,3.9,4.9,16.9,0,18.6c-4.6,2-4.6,4.6,0.5,12.2l3.9,6.4l3.7-6.8C3257.3,349,3258,342.9,3257.3,336.5L3257.3,336.5z M3238,332.1
		c-1.7-4.9-11.7-5.6-11.7-1c0,2.7,2.2,3.9,6.4,3.9C3236.5,335,3238.5,333.8,3238,332.1z"/>
</g>
</svg>
