<?xml version="1.0" encoding="utf-8"?>
<!-- Generator: Adobe Illustrator 19.0.0, SVG Export Plug-In . SVG Version: 6.00 Build 0)  -->
<svg version="1.1" id="Layer_1" xmlns="http://www.w3.org/2000/svg" xmlns:xlink="http://www.w3.org/1999/xlink" x="0px" y="0px"
	 viewBox="0 0 283.5 53" style="enable-background:new 0 0 283.5 53;" xml:space="preserve">
<style type="text/css">
	.st0{fill:#80C342;}
	.st1{fill:#231F20;}
</style>
<g>
	<path class="st0" d="M268.4,45.5c0-4.1,3.4-7.5,7.5-7.5c4.1,0,7.5,3.4,7.5,7.5c0,4.1-3.4,7.5-7.5,7.5
		C271.8,53,268.4,49.6,268.4,45.5"/>
	<path class="st1" d="M43.1,25.1c0,8.7-2.3,15.3-7,20c-4.7,4.7-11.2,7-19.7,7H0v-52h17.6c8.1,0,14.4,2.1,18.9,6.4
		C40.8,10.9,43.1,17,43.1,25.1 M28.8,25.6c0-4.8-0.9-8.3-2.8-10.6c-1.8-2.3-4.6-3.4-8.4-3.4h-4v29.1h3.1c4.2,0,7.2-1.2,9.2-3.7
		C27.9,34.5,28.8,30.7,28.8,25.6"/>
	<rect x="88.5" y="0" class="st1" width="13.1" height="52.2"/>
	<path class="st1" d="M144.4,32.7c0,6.3-1.7,11.3-5,14.8c-3.3,3.5-8,5.3-14,5.3c-5.7,0-10.3-1.8-13.7-5.4c-3.4-3.6-5.1-8.5-5.1-14.7
		c0-6.3,1.7-11.2,5-14.7c3.3-3.5,8-5.2,14-5.2c3.7,0,7,0.8,9.9,2.4c2.9,1.6,5,3.9,6.6,7C143.7,25.1,144.4,28.7,144.4,32.7
		 M119.9,32.7c0,3.3,0.4,5.9,1.3,7.6c0.9,1.7,2.3,2.6,4.4,2.6c2,0,3.5-0.9,4.3-2.6c0.8-1.7,1.3-4.3,1.3-7.6c0-3.3-0.4-5.8-1.3-7.5
		c-0.8-1.7-2.3-2.5-4.3-2.5c-2,0-3.4,0.8-4.3,2.5C120.4,26.9,119.9,29.4,119.9,32.7"/>
	<rect x="149.6" y="13.4" class="st1" width="13.1" height="38.8"/>
	<rect x="149.6" y="0" class="st1" width="13.1" height="8.7"/>
	<path class="st1" d="M189.1,42.3c1.8,0,3.9-0.4,6.3-1.3v9.8c-1.8,0.8-3.4,1.3-5,1.7c-1.6,0.3-3.5,0.5-5.6,0.5
		c-4.4,0-7.5-1.1-9.5-3.3c-1.9-2.2-2.9-5.6-2.9-10.1v-16h-4.6v-10h4.6V3.5l13.2-2.3v12.2h8.3v10h-8.3v15.1
		C185.6,41,186.8,42.3,189.1,42.3"/>
	<path class="st1" d="M219.4,42.3c1.8,0,3.9-0.4,6.3-1.3v9.8c-1.8,0.8-3.4,1.3-5,1.7c-1.6,0.3-3.5,0.5-5.6,0.5
		c-4.4,0-7.5-1.1-9.5-3.3c-1.9-2.2-2.9-5.6-2.9-10.1v-16h-4.6v-10h4.6v-10l13.2-2.1v12.2h8.3v10h-8.3v15.1
		C215.8,41,217,42.3,219.4,42.3"/>
	<path class="st1" d="M260.6,17.3c-3.1-3-7.5-4.6-13.2-4.6c-6,0-10.6,1.7-13.8,5.3c-3.2,3.5-4.8,8.5-4.8,15.1
		c0,6.3,1.7,11.2,5.2,14.7c3.5,3.4,8.4,5.1,14.7,5.1c3,0,5.6-0.2,7.8-0.6c2.2-0.4,4.3-1.1,6.3-2.2l-2-8.7c-1.5,0.6-2.9,1.1-4.2,1.4
		c-1.9,0.4-4,0.7-6.3,0.7c-2.5,0-4.5-0.6-6-1.8c-1.5-1.2-2.2-2.9-2.3-5.1h23.3v-5.9C265.2,24.7,263.7,20.3,260.6,17.3 M242.2,28
		c0.2-2.1,0.8-3.7,1.8-4.7c1-1,2.3-1.5,3.9-1.5c1.7,0,3,0.6,4,1.7c1,1.1,1.5,2.6,1.6,4.5H242.2z"/>
	<path class="st1" d="M78.8,17.3c-3.1-3-7.5-4.6-13.2-4.6c-6,0-10.6,1.7-13.8,5.3c-3.2,3.5-4.8,8.5-4.8,15.1
		c0,6.3,1.7,11.2,5.2,14.7c3.5,3.4,8.4,5.1,14.7,5.1c3,0,5.6-0.2,7.8-0.6c2.2-0.4,4.3-1.1,6.3-2.2l-2-8.7c-1.5,0.6-2.9,1.1-4.2,1.4
		c-1.9,0.4-4,0.7-6.3,0.7c-2.5,0-4.5-0.6-6-1.8c-1.5-1.2-2.2-2.9-2.3-5.1h23.3v-5.9C83.5,24.7,81.9,20.3,78.8,17.3 M60.4,28
		c0.2-2.1,0.8-3.7,1.8-4.7c1-1,2.3-1.5,3.9-1.5c1.7,0,3,0.6,4,1.7c1,1.1,1.5,2.6,1.6,4.5H60.4z"/>
</g>
</svg>
